<svg width="13" height="11" viewBox="0 0 13 11" fill="none" xmlns="http://www.w3.org/2000/svg">
<path d="M11.25 5.75H1.25C0.918479 5.75 0.600537 5.8817 0.366117 6.11612C0.131696 6.35054 0 6.66848 0 7V9.25C0 9.58152 0.131696 9.89946 0.366117 10.1339C0.600537 10.3683 0.918479 10.5 1.25 10.5H11.25C11.5815 10.5 11.8995 10.3683 12.1339 10.1339C12.3683 9.89946 12.5 9.58152 12.5 9.25V7C12.5 6.66848 12.3683 6.35054 12.1339 6.11612C11.8995 5.8817 11.5815 5.75 11.25 5.75ZM11 9H1.5V7.25H11V9ZM11.25 0H1.25C0.918479 0 0.600537 0.131696 0.366117 0.366117C0.131696 0.600537 0 0.918479 0 1.25V3.5C0 3.83152 0.131696 4.14946 0.366117 4.38388C0.600537 4.6183 0.918479 4.75 1.25 4.75H11.25C11.5815 4.75 11.8995 4.6183 12.1339 4.38388C12.3683 4.14946 12.5 3.83152 12.5 3.5V1.25C12.5 0.918479 12.3683 0.600537 12.1339 0.366117C11.8995 0.131696 11.5815 0 11.25 0ZM11 3.25H1.5V1.5H11V3.25Z" fill="#94A3B8"/>
</svg>
