<svg width="16" height="13" viewBox="0 0 16 13" fill="none" xmlns="http://www.w3.org/2000/svg">
<path d="M6.75044 0.5625V11.8125C6.75044 11.9617 6.69118 12.1048 6.58569 12.2102C6.4802 12.3157 6.33713 12.375 6.18794 12.375C6.03876 12.375 5.89568 12.3157 5.79019 12.2102C5.68471 12.1048 5.62544 11.9617 5.62544 11.8125V6.75H1.92068L3.21091 8.03953C3.31646 8.14508 3.37576 8.28823 3.37575 8.4375C3.37575 8.58677 3.31646 8.72992 3.21091 8.83547C3.10536 8.94102 2.96221 9.00031 2.81294 9.00031C2.66368 9.00031 2.52052 8.94102 2.41497 8.83547L0.164974 6.58547C0.112674 6.53323 0.071185 6.47119 0.0428776 6.4029C0.0145702 6.33462 0 6.26142 0 6.1875C0 6.11358 0.0145702 6.04038 0.0428776 5.9721C0.071185 5.90381 0.112674 5.84177 0.164974 5.78953L2.41497 3.53953C2.52052 3.43398 2.66368 3.37469 2.81294 3.37469C2.96221 3.37469 3.10536 3.43398 3.21091 3.53953C3.31646 3.64508 3.37575 3.78823 3.37575 3.9375C3.37576 4.08677 3.31646 4.22992 3.21091 4.33547L1.92068 5.625H5.62544V0.5625C5.62544 0.413316 5.68471 0.270242 5.79019 0.164753C5.89568 0.0592633 6.03876 0 6.18794 0C6.33713 0 6.4802 0.0592633 6.58569 0.164753C6.69118 0.270242 6.75044 0.413316 6.75044 0.5625ZM15.5859 5.78953L13.3359 3.53953C13.2304 3.43398 13.0872 3.37469 12.9379 3.37469C12.7887 3.37469 12.6455 3.43398 12.54 3.53953C12.4344 3.64508 12.3751 3.78823 12.3751 3.9375C12.3751 4.08677 12.4344 4.22992 12.54 4.33547L13.8302 5.625H10.1254V0.5625C10.1254 0.413316 10.0662 0.270242 9.96069 0.164753C9.8552 0.0592633 9.71212 0 9.56294 0C9.41376 0 9.27068 0.0592633 9.16519 0.164753C9.0597 0.270242 9.00044 0.413316 9.00044 0.5625V11.8125C9.00044 11.9617 9.0597 12.1048 9.16519 12.2102C9.27068 12.3157 9.41376 12.375 9.56294 12.375C9.71212 12.375 9.8552 12.3157 9.96069 12.2102C10.0662 12.1048 10.1254 11.9617 10.1254 11.8125V6.75H13.8302L12.54 8.03953C12.4344 8.14508 12.3751 8.28823 12.3751 8.4375C12.3751 8.58677 12.4344 8.72992 12.54 8.83547C12.6455 8.94102 12.7887 9.00031 12.9379 9.00031C13.0872 9.00031 13.2304 8.94102 13.3359 8.83547L15.5859 6.58547C15.6382 6.53323 15.6797 6.47119 15.708 6.4029C15.7363 6.33462 15.7509 6.26142 15.7509 6.1875C15.7509 6.11358 15.7363 6.04038 15.708 5.9721C15.6797 5.90381 15.6382 5.84177 15.5859 5.78953Z" fill="#475569"/>
</svg>
